<?xml version='1.0' encoding='utf-8'?>
<svg xmlns="http://www.w3.org/2000/svg" version="1.0" viewBox="0 0 1114 845" preserveAspectRatio="xMidYMid meet">
<metadata>
Created by potrace 1.16, written by Peter Selinger 2001-2019
</metadata>
<g transform="translate(0.000000,1264.000000) scale(0.100000,-0.100000)" fill="#1C3764" stroke="none">
<path d="M3692 12624 c-5 -10 -622 -179 -1763 -485 -987 -264 -1765 -477 -1779 -488 -14 -9 -33 -33 -43 -52 -16 -32 -17 -221 -15 -3612 l3 -3579 33 -29 c18 -16 44 -29 57 -29 20 0 2689 710 3402 905 l163 45 1772 -475 c1397 -374 1785 -475 1832 -475 47 0 430 99 1811 469 963 258 1763 475 1778 482 15 7 36 27 47 44 20 32 20 65 20 3619 l0 3588 -29 29 c-20 19 -40 29 -60 29 -25 0 -3437 -908 -3534 -940 -23 -8 -338 74 -1799 465 -974 261 -1772 475 -1774 475 -2 0 -4 7 -4 15 0 17 -5 17 -35 6 -11 -5 -32 -5 -47 0 -20 5 -30 4 -36 -7z m-2 -1044 l0 -901 -37 6 c-21 4 -73 16 -116 27 -43 11 -79 19 -81 17 -1 -2 -23 -33 -48 -69 -70 -100 -122 -154 -211 -221 -146 -111 -303 -169 -453 -169 -148 1 -246 39 -339 135 l-60 61 -60 -19 c-33 -10 -99 -21 -146 -24 -237 -16 -425 102 -500 313 -28 81 -36 245 -16 339 65 306 309 597 591 706 219 84 407 73 568 -36 37 -25 69 -45 71 -45 2 0 7 37 11 81 4 45 15 126 26 180 19 99 83 306 101 324 7 7 344 101 697 194 1 1 2 -404 2 -899z m960 675 c404 -108 738 -202 742 -208 18 -29 80 -232 98 -323 24 -122 35 -315 23 -412 -9 -71 -9 -74 14 -89 39 -26 150 -172 192 -253 164 -317 99 -633 -155 -752 -83 -39 -201 -48 -313 -24 -131 28 -300 125 -404 233 l-37 39 -73 -13 c-100 -17 -285 -16 -398 3 -119 20 -305 81 -426 140 l-93 46 0 918 0 919 48 -14 c26 -7 378 -102 782 -210z m6240 -1040 c0 -696 -2 -1265 -4 -1265 -2 0 -250 257 -552 571 l-549 571 0 90 0 90 313 84 c189 51 325 92 343 105 68 48 77 124 25 227 l-34 67 34 90 c39 105 43 161 14 198 -44 55 -61 54 -408 -39 -174 -46 -330 -92 -347 -102 -16 -10 -40 -37 -52 -62 -23 -43 -23 -51 -23 -396 l0 -352 -197 -284 c-109 -156 -612 -881 -1118 -1611 l-920 -1327 -3 1837 c-1 1010 0 1838 2 1840 4 4 3454 931 3469 932 4 1 7 -568 7 -1264z m-8053 1022 c-20 -52 -57 -184 -67 -242 -8 -38 -16 -73 -20 -78 -3 -4 -33 3 -66 15 -51 19 -80 22 -204 22 -132 0 -152 -3 -230 -28 -164 -55 -293 -131 -417 -249 -171 -163 -290 -373 -334 -592 -17 -85 -15 -247 5 -325 56 -223 217 -389 431 -445 69 -18 221 -20 312 -4 l63 11 44 -40 c96 -89 230 -136 386 -136 165 0 313 47 469 148 81 52 215 177 268 248 25 35 40 47 52 43 9 -4 49 -12 89 -18 l72 -12 0 -913 0 -914 -47 35 c-63 45 -643 453 -712 500 -57 39 -111 48 -166 27 -25 -9 -1126 -852 -1188 -909 -16 -14 -37 -43 -48 -63 -18 -34 -19 -62 -19 -368 0 -181 -3 -330 -7 -330 -5 0 -188 160 -408 355 -393 349 -400 355 -442 355 -35 0 -50 -6 -81 -34 l-37 -34 -5 -543 -5 -542 -140 -38 c-77 -21 -146 -38 -153 -39 -10 0 -12 448 -10 2227 l3 2227 1290 347 c710 191 1298 347 1309 348 11 1 16 -4 13 -12z m3578 -451 l870 -233 3 -2197 c1 -1208 -2 -2196 -6 -2196 -13 0 -233 229 -294 305 -175 221 -322 510 -393 777 -64 238 -75 366 -75 849 0 435 -1 448 -56 484 -29 19 -1726 475 -1767 475 -18 0 -39 -11 -58 -29 l-29 -29 0 -389 c0 -503 -16 -662 -85 -868 -101 -301 -320 -537 -594 -642 -47 -18 -92 -32 -98 -33 -10 0 -13 250 -13 1220 0 671 2 1220 4 1220 2 0 41 -18 87 -39 249 -116 555 -169 796 -138 l61 8 66 -59 c306 -271 753 -287 964 -34 97 117 136 245 130 427 -4 104 -10 134 -40 222 -43 125 -100 226 -184 326 l-64 77 0 141 c0 203 -21 327 -97 572 -3 9 -4 17 -2 17 2 0 396 -106 874 -234z m3955 160 c0 -3 -13 -41 -30 -86 -16 -45 -30 -92 -30 -104 0 -13 16 -59 35 -101 29 -64 34 -81 23 -90 -7 -7 -134 -45 -283 -84 -148 -40 -278 -74 -287 -77 -17 -5 -18 9 -18 190 0 145 3 197 13 203 15 9 535 151 560 152 9 1 17 -1 17 -3z m-326 -1303 c33 -36 44 -54 35 -57 -34 -12 -763 -205 -765 -203 -2 1 89 136 202 299 l206 296 137 -141 c75 -78 159 -166 185 -194z m500 -518 l346 -360 0 -871 0 -870 -773 -207 c-425 -114 -779 -207 -787 -206 -14 0 -226 257 -218 264 1 1 353 184 781 406 427 221 777 405 777 408 0 3 -203 114 -450 245 -247 132 -455 243 -461 247 -7 4 101 137 281 345 160 187 294 344 297 351 2 6 -85 131 -195 277 l-200 266 41 11 c23 6 78 22 122 34 44 12 83 22 87 21 4 0 162 -163 352 -361z m-551 20 c98 -129 180 -241 183 -249 4 -10 -103 -142 -300 -371 -169 -195 -309 -361 -311 -368 -3 -8 148 -93 419 -237 233 -124 421 -228 417 -233 -4 -4 -338 -179 -742 -388 -404 -210 -736 -383 -738 -385 -2 -2 58 -80 133 -174 85 -106 132 -172 124 -175 -43 -14 -768 -205 -782 -205 -13 0 -16 13 -16 83 l0 82 54 28 c73 38 160 131 197 210 51 111 56 205 15 313 -8 21 -17 59 -20 82 -19 132 -144 226 -274 207 -157 -22 -312 -177 -329 -328 -3 -29 -16 -84 -29 -124 -40 -119 -30 -212 29 -299 39 -57 114 -102 186 -111 l51 -6 0 -88 0 -88 -52 -15 c-44 -13 -201 -55 -765 -206 l-33 -8 0 276 0 277 878 1265 c482 696 884 1275 893 1288 14 19 65 36 305 102 159 43 298 78 310 79 15 1 62 -55 197 -234z m-4422 -450 l817 -218 5 -426 c6 -457 14 -556 64 -766 40 -168 96 -325 177 -490 109 -221 230 -394 405 -578 41 -43 68 -75 60 -73 -8 3 -133 37 -279 76 -146 39 -273 73 -282 76 -16 5 -18 20 -18 128 0 355 -139 676 -409 947 -240 239 -486 352 -766 353 -214 0 -359 -58 -506 -204 -98 -97 -147 -177 -190 -308 -32 -101 -53 -270 -44 -347 l7 -54 -123 33 c-68 19 -206 55 -306 82 -101 27 -183 51 -183 54 0 3 42 26 93 52 351 179 567 534 627 1028 5 46 10 259 10 473 0 307 3 388 13 385 6 -3 379 -103 828 -223z m-2303 -820 l422 -297 0 -277 0 -276 -277 -74 c-153 -41 -284 -76 -290 -79 -10 -3 -13 43 -13 212 0 230 -7 273 -48 295 -12 6 -33 11 -49 11 -15 0 -192 -44 -393 -97 -330 -88 -368 -101 -400 -130 l-35 -31 -3 -256 c-3 -230 -5 -255 -20 -260 -9 -3 -127 -35 -261 -71 -186 -50 -247 -62 -257 -54 -20 16 -20 755 0 781 27 37 1170 909 1185 905 9 -2 206 -138 439 -302z m2312 -310 c294 -95 539 -316 690 -620 149 -301 167 -566 60 -886 -101 -303 -337 -664 -647 -988 l-108 -114 -101 159 c-376 592 -616 1102 -710 1509 -24 104 -28 142 -28 280 -1 185 10 241 75 374 73 148 218 266 375 306 97 24 288 15 394 -20z m-2600 -518 l0 -212 -327 -88 c-181 -48 -334 -87 -340 -87 -10 0 -13 49 -13 210 l0 210 28 6 c15 4 164 45 332 90 168 45 308 83 313 83 4 1 7 -95 7 -212z m5469 179 c34 -18 51 -54 51 -112 0 -30 7 -54 22 -74 29 -40 35 -123 14 -186 -47 -138 -200 -249 -318 -229 -113 19 -158 158 -93 286 8 15 15 45 15 67 0 21 7 59 15 83 44 128 198 214 294 165z m-7086 -654 c399 -354 673 -604 665 -607 -25 -9 -1358 -365 -1368 -365 -7 0 -10 265 -10 801 0 752 1 801 17 788 9 -8 322 -285 696 -617z m2306 -688 c-42 -69 -175 -149 -298 -180 -42 -10 -93 -15 -148 -12 -78 3 -87 5 -108 31 -21 24 -31 27 -83 27 -57 0 -58 -1 -70 -35 -40 -109 -315 -238 -469 -221 -65 7 -101 23 -108 48 -5 15 -17 18 -71 18 -58 0 -64 -2 -64 -21 0 -30 -104 -129 -177 -167 -156 -82 -377 -95 -408 -24 -8 19 -17 22 -68 22 -52 0 -58 -2 -67 -25 -17 -46 -54 -85 -120 -131 -87 -59 -193 -96 -296 -102 -94 -5 -147 9 -171 44 -13 20 -23 24 -68 24 -53 0 -53 0 -75 -45 -63 -130 -340 -250 -496 -215 -91 21 -84 -23 -84 545 l0 502 143 38 c78 21 148 40 155 43 9 3 12 -52 12 -257 l0 -261 29 -32 c22 -25 36 -32 63 -31 25 1 542 133 701 179 16 5 18 0 15 -47 l-3 -52 -380 -102 c-419 -113 -385 -96 -364 -177 7 -26 15 -38 27 -38 9 0 189 47 400 104 412 111 422 115 442 185 5 20 10 66 10 102 l0 65 293 78 c160 43 311 86 334 96 60 26 89 96 66 155 -3 10 -92 94 -197 187 -105 93 -190 173 -188 176 2 4 431 122 955 262 l952 255 3 -488 c2 -483 2 -490 -19 -523z m563 901 c216 -58 393 -107 394 -108 1 -1 9 -38 19 -82 86 -397 345 -950 727 -1553 128 -202 166 -247 200 -237 55 17 359 342 513 549 195 262 335 533 391 754 10 40 23 71 29 69 5 -3 184 -51 398 -108 l387 -103 0 -1244 c0 -1179 -1 -1243 -17 -1238 -10 3 -767 206 -1683 451 -916 245 -1689 452 -1717 461 l-53 15 0 1239 c0 843 3 1240 10 1240 6 0 187 -47 402 -105z m6658 -1134 c0 -1172 -1 -1240 -17 -1245 -40 -12 -618 -166 -625 -166 -5 0 -8 101 -8 224 l0 223 46 18 c75 29 188 110 264 192 213 228 277 527 161 752 -22 41 -31 75 -34 126 -12 182 -131 318 -310 355 -103 21 -242 -7 -356 -73 -78 -44 -194 -158 -246 -241 -44 -71 -95 -204 -95 -248 0 -13 -3 -33 -6 -45 -6 -21 -8 -21 -46 -7 -58 20 -164 18 -241 -6 -201 -62 -376 -286 -377 -481 0 -26 -10 -68 -22 -95 -34 -77 -48 -143 -48 -226 0 -224 143 -381 358 -392 l67 -3 3 -156 2 -155 -52 -16 c-29 -8 -359 -97 -733 -197 -374 -100 -686 -184 -693 -186 -10 -4 1407 2849 1423 2865 6 6 1548 420 1568 421 16 1 17 -64 17 -1238z m-2467 -662 l-718 -1434 -140 -37 c-77 -21 -143 -38 -148 -38 -4 0 -6 559 -5 1242 l3 1243 860 231 c473 127 861 230 863 228 2 -1 -320 -647 -715 -1435z m1969 1005 c101 -34 161 -128 165 -258 2 -64 7 -85 27 -116 58 -89 76 -237 41 -357 -78 -270 -337 -486 -585 -487 -83 0 -132 13 -201 56 -25 15 -49 28 -52 28 -3 0 -11 -17 -17 -37 -86 -269 -378 -451 -576 -359 -134 63 -180 230 -108 399 16 38 29 93 34 142 9 90 26 143 65 205 92 145 278 232 400 186 24 -10 64 -37 87 -62 23 -24 45 -44 48 -44 3 0 20 30 38 68 26 54 32 79 32 133 0 127 57 255 160 360 70 71 128 109 212 139 65 24 168 26 230 4z m-6722 -450 c-30 -47 -136 -121 -228 -157 -136 -53 -317 -48 -339 9 -4 10 -22 14 -67 14 -62 0 -62 0 -74 -35 -25 -67 -165 -162 -297 -201 -116 -33 -266 -19 -280 27 -5 16 -16 19 -71 19 -58 0 -64 -2 -64 -21 0 -12 -24 -45 -58 -78 -93 -94 -259 -161 -397 -161 -57 0 -135 32 -135 55 0 12 -12 15 -60 15 -58 0 -60 -1 -74 -32 -25 -59 -91 -117 -193 -167 -152 -76 -355 -82 -393 -12 -9 17 -20 21 -64 21 l-54 0 -22 -46 c-62 -127 -320 -240 -489 -213 -83 13 -91 25 -91 136 l0 95 32 -9 c56 -14 209 -8 278 10 107 29 223 91 294 158 64 59 65 60 93 46 156 -80 464 -7 635 151 l59 55 37 -18 c59 -29 209 -32 313 -6 119 30 237 91 308 160 l58 56 44 -19 c156 -69 460 7 613 154 l63 60 46 -20 c130 -57 371 -17 533 90 l59 39 3 -70 c2 -58 -1 -76 -18 -105z m-6 -346 c-35 -50 -147 -124 -237 -156 -85 -30 -216 -41 -271 -22 -20 6 -44 23 -53 36 -13 20 -23 24 -68 24 l-53 0 -22 -46 c-79 -163 -472 -287 -567 -179 -19 21 -31 25 -83 25 -52 0 -60 -2 -60 -19 0 -28 -80 -111 -143 -149 -30 -18 -88 -45 -129 -59 -130 -46 -318 -32 -318 22 0 12 -14 15 -60 15 -58 0 -60 -1 -74 -32 -33 -79 -182 -178 -321 -213 -117 -30 -239 -14 -265 34 -9 17 -20 21 -64 21 l-54 0 -22 -46 c-38 -78 -147 -151 -288 -194 -57 -17 -91 -21 -161 -18 -124 4 -131 12 -131 135 l0 94 38 -8 c61 -13 202 -7 272 11 107 28 223 90 293 156 l64 59 54 -21 c162 -64 444 10 608 159 l62 56 42 -19 c33 -15 65 -19 162 -19 108 1 129 4 208 32 109 38 185 83 254 150 l53 51 42 -21 c63 -32 233 -31 338 1 108 34 205 88 276 154 l62 58 44 -20 c87 -38 219 -36 353 7 61 19 179 77 214 104 l26 21 3 -72 c3 -65 0 -77 -24 -112z m22 -785 c-2 -2 -773 -210 -1713 -462 -939 -252 -1718 -461 -1730 -465 l-23 -7 0 326 0 326 38 -8 c20 -4 78 -8 127 -7 155 2 327 72 444 180 l58 53 54 -21 c68 -26 193 -28 294 -4 108 26 243 96 314 163 l60 58 43 -19 c55 -25 187 -33 271 -16 132 25 277 99 362 185 l45 44 47 -21 c156 -69 449 5 607 153 64 59 65 60 93 45 44 -22 152 -38 213 -31 122 14 266 67 365 134 l30 21 3 -312 c1 -171 0 -313 -2 -315z m6231 252 c31 -8 88 -15 125 -15 l68 0 0 -224 c0 -205 -2 -225 -17 -230 -10 -3 -146 -39 -303 -81 -157 -42 -291 -78 -297 -80 -10 -3 -13 31 -13 153 l0 157 78 40 c91 47 213 161 258 242 16 29 32 53 36 53 4 0 33 -7 65 -15z" />
<path d="M1312 9940 c-199 -52 -395 -217 -495 -415 -102 -203 -96 -441 13 -586 49 -65 95 -103 163 -134 144 -66 299 -57 472 29 161 80 287 208 365 370 58 122 73 191 68 321 -4 99 -8 118 -37 180 -95 205 -311 297 -549 235z m273 -126 c33 -12 67 -35 102 -69 43 -43 55 -65 74 -125 55 -182 -20 -402 -191 -564 -121 -114 -242 -166 -384 -166 -68 0 -91 5 -141 28 -115 55 -166 142 -173 292 -4 83 -1 105 23 175 106 317 429 518 690 429z" />
<path d="M5193 8210 c-49 -29 -67 -72 -66 -160 1 -41 8 -106 17 -143 9 -38 16 -70 16 -73 0 -2 -17 -4 -37 -4 -113 0 -223 -36 -261 -85 -35 -44 -37 -80 -7 -141 31 -64 82 -109 203 -181 48 -29 92 -56 99 -60 10 -6 8 -24 -8 -78 -38 -132 -27 -254 30 -319 63 -72 192 -62 317 26 l58 40 30 -38 c63 -80 181 -195 221 -214 117 -57 205 8 205 151 0 39 -14 120 -35 202 l-7 27 74 0 c193 0 301 97 240 217 -31 59 -128 142 -230 196 l-88 46 24 93 c43 170 16 288 -78 336 -35 18 -55 22 -93 18 -58 -6 -148 -46 -200 -88 l-39 -30 -16 23 c-35 51 -133 158 -170 188 -46 36 -118 70 -147 71 -11 0 -34 -9 -52 -20z m115 -144 c23 -19 78 -77 123 -130 44 -53 88 -100 99 -106 41 -22 87 -10 144 37 71 59 166 89 194 61 17 -17 15 -129 -4 -202 -32 -125 -155 -349 -251 -455 l-39 -44 -46 79 c-113 197 -212 427 -254 590 -23 93 -32 204 -16 204 4 0 26 -15 50 -34z m-74 -437 c28 -71 28 -72 9 -106 -10 -19 -22 -37 -26 -40 -24 -15 -257 150 -257 183 0 20 55 32 156 33 l90 1 28 -71z m778 -174 c86 -50 158 -113 158 -138 0 -21 -88 -39 -175 -35 l-68 3 -28 69 -28 69 20 38 c11 22 25 39 32 39 6 0 47 -21 89 -45z m-656 -169 c45 -15 54 -22 89 -83 l39 -66 -30 -24 c-44 -35 -124 -73 -156 -73 -35 0 -48 24 -48 90 0 65 29 182 44 177 6 -2 34 -12 62 -21z m432 -112 c23 -4 45 -11 49 -16 16 -27 43 -160 43 -216 l0 -63 -31 18 c-35 20 -132 122 -174 183 l-27 40 28 34 c20 24 35 34 49 31 11 -2 39 -7 63 -11z" />
</g>
</svg>