<svg version="1.0" xmlns="http://www.w3.org/2000/svg"
  viewBox="0 0 3067.000000 830.000000"
 preserveAspectRatio="xMidYMid meet">
<metadata>
Created by potrace 1.16, written by Peter Selinger 2001-2019
</metadata>
<g transform="translate(0.000000,830.000000) scale(0.100000,-0.100000)"
fill="#1C3764" stroke="none">
<path d="M3599 8281 c-10 -13 -122 -47 -414 -125 -2066 -553 -3057 -819 -3093
-832 -28 -11 -51 -28 -63 -48 -19 -30 -19 -104 -19 -3614 0 -2548 3 -3589 11
-3604 14 -26 69 -49 100 -41 13 3 814 217 1779 475 l1754 470 1776 -476 c1339
-359 1790 -476 1832 -476 42 0 490 116 1814 471 968 259 1771 478 1785 486 15
9 34 28 43 43 15 26 16 312 16 3615 l0 3587 -29 29 c-19 19 -40 29 -58 29 -16
0 -826 -214 -1801 -475 -1463 -392 -1776 -473 -1799 -465 -15 5 -467 127
-1003 270 -2180 584 -2505 672 -2510 680 -3 4 -24 8 -47 8 -24 1 -47 3 -52 6
-5 3 -15 -3 -22 -13z m1 -1041 l0 -900 -23 0 c-23 0 -155 31 -188 45 -12 5
-30 -14 -71 -72 -31 -43 -86 -108 -124 -144 -297 -283 -673 -326 -885 -102
l-52 55 -76 -21 c-96 -26 -243 -28 -322 -5 -235 69 -374 306 -339 578 14 107
67 259 126 358 64 106 205 254 308 323 161 106 300 150 460 143 118 -5 187
-27 278 -88 33 -22 63 -38 65 -36 3 3 9 42 14 88 14 132 37 234 82 367 l42
124 340 93 c187 50 346 92 353 93 9 1 12 -185 12 -899z m922 685 c422 -113
769 -205 771 -205 10 0 66 -161 91 -261 42 -173 56 -347 38 -498 l-7 -54 57
-58 c276 -282 329 -699 114 -897 -53 -49 -122 -85 -195 -102 -106 -25 -281 3
-402 65 -62 32 -173 113 -222 163 l-48 48 -77 -14 c-97 -17 -335 -10 -442 13
-113 25 -273 80 -377 131 l-93 46 0 919 c0 730 3 917 13 914 6 -3 357 -97 779
-210z m6278 -1050 c0 -696 -2 -1265 -4 -1265 -2 0 -252 259 -557 576 l-554
577 -3 82 c-2 73 0 84 15 89 10 3 146 39 303 81 157 42 302 83 323 92 91 39
110 128 53 241 l-34 67 34 90 c43 114 44 162 5 204 -24 25 -37 31 -71 31 -51
0 -632 -154 -675 -179 -16 -9 -38 -32 -50 -51 -19 -33 -20 -51 -20 -395 0
-331 -1 -362 -18 -385 -10 -14 -514 -740 -1120 -1614 l-1102 -1588 -3 1838
c-1 1010 0 1840 3 1842 5 6 3442 930 3463 931 9 1 12 -258 12 -1264z m-8075
938 c-18 -60 -38 -140 -45 -179 l-13 -71 -71 23 c-104 33 -212 39 -323 20
-332 -57 -622 -288 -778 -619 -71 -148 -88 -227 -89 -392 -1 -159 11 -213 72
-330 118 -227 388 -345 666 -291 l69 13 58 -47 c124 -99 241 -135 414 -127 86
4 131 11 205 36 197 63 392 209 513 381 l15 22 91 -17 91 -18 0 -914 c0 -729
-3 -913 -12 -907 -7 4 -177 123 -379 265 -201 141 -381 266 -400 278 -42 26
-93 27 -139 3 -44 -22 -1167 -885 -1198 -921 -45 -51 -47 -61 -52 -415 l-5
-340 -320 285 c-176 156 -359 319 -407 362 -97 86 -125 94 -186 57 -62 -38
-62 -35 -62 -613 l0 -524 -152 -40 c-84 -22 -156 -38 -160 -36 -5 2 -8 1005
-8 2229 0 2080 1 2225 17 2231 21 8 2594 700 2609 702 7 1 -2 -43 -21 -106z
m3600 -367 l870 -233 3 -2196 c1 -1209 -2 -2197 -6 -2197 -13 0 -233 229 -294
305 -204 257 -359 589 -422 905 -40 200 -46 296 -46 722 0 373 -1 406 -18 438
-32 59 64 30 -1322 399 -250 67 -468 121 -483 121 -18 0 -39 -11 -58 -29 l-29
-29 0 -395 c0 -499 -15 -655 -85 -862 -101 -301 -320 -537 -594 -642 -47 -18
-94 -32 -103 -33 -17 0 -18 65 -18 1220 0 829 3 1220 10 1220 6 0 38 -14 71
-31 75 -37 269 -103 365 -123 136 -29 285 -38 405 -26 l111 11 48 -45 c100
-93 241 -170 380 -207 94 -25 249 -27 334 -4 188 50 330 197 381 395 26 100
17 288 -20 400 -46 142 -113 261 -209 366 l-46 52 0 150 c0 190 -38 415 -96
566 -3 9 -5 16 -3 16 2 0 396 -105 874 -234z m3926 74 c-17 -43 -31 -89 -31
-102 0 -12 17 -57 37 -100 31 -68 35 -81 22 -92 -12 -13 -578 -170 -585 -164
-1 2 -4 88 -5 191 -2 135 1 191 10 200 15 15 575 166 579 155 2 -4 -10 -44
-27 -88z m-282 -1232 c24 -27 29 -39 19 -43 -34 -12 -762 -204 -765 -202 -1 2
90 137 203 301 l206 297 152 -158 c84 -87 167 -175 185 -195z m486 -503 l345
-359 0 -873 c0 -480 -3 -873 -6 -873 -3 0 -348 -92 -767 -204 -419 -112 -769
-206 -778 -208 -11 -2 -53 42 -124 130 -85 105 -105 136 -94 142 8 5 359 188
781 407 423 219 768 400 768 403 0 3 -202 112 -448 243 -246 131 -453 241
-461 246 -10 7 59 93 280 350 162 188 295 346 297 351 2 5 -87 129 -198 275
-110 146 -200 265 -198 266 2 0 57 16 123 34 66 18 123 32 127 32 4 -1 163
-164 353 -362z m-536 2 l180 -239 -315 -365 c-173 -201 -314 -368 -314 -372 0
-3 192 -107 425 -231 234 -124 425 -227 425 -230 0 -3 -331 -176 -736 -385
-404 -209 -740 -383 -746 -386 -6 -4 46 -77 125 -175 75 -93 133 -172 129
-175 -4 -4 -180 -53 -392 -109 -212 -56 -391 -105 -397 -107 -10 -4 -13 17
-13 83 l0 89 54 28 c74 39 159 131 199 214 29 62 32 76 32 168 0 76 -4 108
-17 134 -10 19 -18 44 -18 56 0 46 -33 128 -66 165 -50 55 -105 74 -202 68
-61 -3 -89 -11 -130 -33 -108 -59 -197 -185 -208 -297 -3 -29 -15 -75 -27
-103 -29 -70 -30 -202 -1 -265 39 -86 118 -143 213 -156 l52 -7 -3 -90 -3 -90
-401 -107 c-220 -59 -410 -111 -422 -114 l-22 -7 0 279 0 279 890 1283 c489
706 892 1285 895 1288 2 3 141 42 307 87 219 59 306 78 315 71 6 -6 93 -118
192 -249z m-4829 -327 c423 -114 1091 -292 1168 -312 l42 -10 0 -327 c0 -351
11 -561 36 -711 75 -454 283 -872 599 -1208 48 -50 81 -90 74 -87 -8 2 -133
36 -279 75 -146 39 -273 73 -282 76 -16 5 -18 20 -18 128 0 357 -137 673 -409
947 -236 238 -480 351 -761 353 -218 1 -362 -57 -511 -204 -98 -97 -147 -177
-190 -309 -32 -99 -52 -266 -43 -346 l7 -54 -109 29 c-60 17 -198 54 -306 82
-109 29 -198 55 -198 58 0 3 42 26 93 52 276 141 474 398 571 743 55 194 58
229 63 703 4 408 6 442 21 438 9 -3 204 -55 432 -116z m-1910 -920 l420 -295
0 -282 0 -282 -42 -12 c-24 -6 -150 -40 -281 -75 -131 -35 -244 -64 -252 -64
-13 0 -15 35 -15 231 l0 231 -29 29 c-16 16 -39 29 -51 29 -23 0 -717 -183
-763 -202 -15 -6 -36 -23 -47 -38 -18 -25 -20 -48 -22 -280 l-3 -253 -262 -70
c-144 -38 -269 -67 -278 -64 -13 6 -15 54 -15 391 l0 385 23 25 c12 14 276
221 587 461 413 318 571 435 588 433 12 -2 211 -136 442 -298z m2260 -300
c109 -26 266 -103 367 -179 302 -228 503 -615 503 -970 0 -389 -284 -918 -748
-1393 l-76 -77 -61 92 c-291 436 -563 969 -688 1349 -70 211 -91 325 -91 503
-1 185 10 241 75 374 71 145 206 257 364 302 86 25 247 24 355 -1z m-2540
-529 c0 -116 -4 -212 -8 -215 -4 -2 -153 -44 -331 -91 -177 -47 -329 -89 -337
-92 -12 -4 -14 27 -12 213 l3 219 320 86 c176 48 330 88 343 88 l22 1 0 -209z
m5467 173 c32 -20 46 -51 48 -109 2 -30 11 -64 24 -85 42 -70 19 -197 -53
-284 -74 -91 -194 -142 -275 -117 -93 27 -130 124 -92 234 13 34 26 92 31 129
5 36 16 80 24 96 65 125 206 190 293 136z m-7062 -674 c636 -563 651 -577 644
-584 -2 -2 -310 -86 -684 -186 -374 -101 -686 -185 -692 -187 -10 -4 -13 161
-13 807 l0 812 78 -69 c42 -38 343 -305 667 -593z m2295 -152 l0 -502 -57 -56
c-132 -126 -386 -196 -501 -136 -18 9 -32 23 -32 31 0 12 -14 15 -60 15 -58 0
-60 -1 -74 -34 -32 -77 -181 -176 -321 -211 -117 -30 -250 -12 -262 35 -5 17
-14 20 -64 20 l-58 0 -20 -44 c-33 -76 -171 -166 -306 -201 -77 -20 -197 -20
-235 0 -16 8 -34 24 -40 35 -9 16 -21 20 -63 20 -52 0 -53 -1 -71 -40 -52
-118 -316 -244 -474 -226 -62 7 -112 30 -112 51 0 12 -14 15 -60 15 -58 0 -60
-1 -74 -32 -19 -46 -90 -110 -167 -152 -159 -87 -378 -100 -416 -25 -18 35
-18 992 0 1006 11 8 281 84 299 83 4 0 8 -120 10 -266 l3 -266 28 -24 c15 -13
40 -24 55 -24 15 0 178 40 363 90 186 49 344 90 354 90 13 0 16 -9 13 -52 l-3
-52 -377 -101 c-208 -56 -380 -104 -383 -107 -7 -6 16 -108 24 -108 3 0 182
47 396 105 378 101 391 105 423 140 31 34 32 37 32 125 0 49 2 90 4 90 3 0
148 38 323 86 331 88 349 96 373 155 27 65 14 83 -195 268 -107 95 -195 176
-195 180 0 4 123 40 273 80 427 114 984 263 1322 355 171 47 313 85 318 85 4
1 7 -225 7 -501z m7198 -1364 l-3 -627 -310 -83 c-170 -46 -318 -83 -327 -84
-17 0 -18 17 -18 221 l0 220 57 25 c373 165 581 617 428 930 -26 53 -35 85
-35 121 0 100 -53 218 -126 283 -103 90 -270 118 -420 70 -152 -49 -316 -189
-392 -336 -45 -88 -72 -176 -72 -236 0 -21 -1 -38 -2 -38 -2 0 -25 7 -52 15
-179 54 -402 -42 -525 -225 -52 -79 -80 -155 -90 -249 -5 -42 -21 -107 -37
-146 -24 -62 -28 -84 -28 -185 -1 -109 1 -119 30 -180 62 -130 167 -201 311
-208 l83 -5 -2 -160 -3 -160 -740 -198 c-407 -109 -740 -197 -741 -196 -1 1
321 648 715 1437 l716 1434 790 211 790 211 3 -617 c1 -340 1 -900 0 -1245z
m-6656 1751 c215 -57 392 -106 393 -107 0 -2 16 -64 34 -138 100 -413 376
-983 757 -1563 101 -154 126 -180 165 -170 23 6 287 276 380 388 264 320 465
678 520 928 7 33 17 56 23 54 6 -2 185 -51 399 -107 l387 -104 0 -1244 c0
-1180 -1 -1243 -17 -1238 -10 3 -783 210 -1718 461 -935 250 -1710 459 -1722
465 l-22 9 0 1236 c0 1102 1 1235 15 1235 8 0 191 -47 406 -105z m4197 -1791
c-392 -786 -713 -1431 -715 -1433 -4 -4 -284 -81 -296 -81 -5 0 -8 559 -8
1243 l0 1242 863 231 c474 127 863 230 865 229 1 -1 -318 -645 -709 -1431z
m1991 988 c91 -45 140 -135 140 -259 0 -51 5 -70 30 -110 66 -107 74 -233 24
-383 -81 -240 -308 -432 -541 -456 -73 -8 -170 15 -234 56 -25 17 -48 30 -51
30 -3 0 -16 -28 -28 -62 -70 -194 -247 -343 -421 -356 -96 -7 -152 11 -210 67
-92 90 -104 238 -31 393 12 27 22 72 24 118 11 192 185 375 369 388 79 6 124
-12 181 -71 26 -28 49 -48 51 -46 2 2 18 34 35 70 26 55 32 79 32 135 0 129
56 250 165 359 80 80 165 130 258 150 79 17 138 11 207 -23z m-6730 -337 l0
-86 -47 -50 c-90 -96 -307 -179 -431 -165 -62 7 -112 30 -112 51 0 12 -14 15
-60 15 -58 0 -60 -1 -73 -32 -20 -48 -92 -113 -169 -153 -161 -85 -381 -99
-413 -27 -8 19 -17 22 -67 22 l-57 0 -20 -44 c-33 -76 -169 -165 -306 -201
-118 -30 -249 -14 -275 34 -9 17 -20 21 -63 21 -52 0 -53 -1 -71 -40 -33 -75
-167 -167 -301 -206 -114 -33 -285 -15 -285 30 0 13 -12 16 -60 16 -58 0 -60
-1 -73 -33 -20 -47 -109 -122 -191 -162 -133 -64 -273 -82 -353 -46 -49 23
-56 44 -51 156 2 57 6 69 18 66 47 -14 218 -12 284 4 112 26 246 96 315 163
l58 57 44 -20 c36 -16 65 -20 154 -20 64 0 131 6 160 14 130 36 246 100 320
176 42 44 44 44 71 30 155 -80 463 -9 628 146 65 60 65 60 94 45 16 -8 60 -20
97 -26 166 -26 393 49 535 177 l61 56 37 -18 c53 -26 206 -32 295 -11 92 22
202 69 257 111 25 18 46 34 48 34 1 1 2 -37 2 -84z m0 -341 l0 -85 -55 -55
c-98 -98 -299 -174 -423 -160 -62 7 -112 30 -112 51 0 12 -14 15 -60 15 -58 0
-60 -1 -73 -33 -33 -77 -190 -179 -327 -211 -119 -28 -234 -14 -255 32 -8 19
-18 22 -66 22 l-57 0 -22 -46 c-25 -51 -92 -106 -185 -152 -155 -77 -357 -84
-395 -13 -9 17 -20 21 -63 21 -52 0 -53 -1 -71 -40 -24 -54 -96 -115 -191
-160 -96 -46 -168 -64 -255 -64 -70 0 -140 25 -140 50 0 10 -16 14 -60 14 -57
0 -61 -2 -71 -27 -26 -69 -145 -157 -272 -199 -140 -48 -295 -36 -318 23 -5
13 -9 63 -9 110 0 77 2 84 18 78 9 -5 63 -10 119 -13 89 -4 114 -1 195 22 119
35 216 87 288 156 l57 55 44 -19 c157 -69 460 7 613 154 l63 60 49 -22 c41
-19 66 -23 149 -22 173 1 336 63 456 173 l66 60 54 -21 c164 -63 456 14 610
161 l58 56 43 -19 c55 -25 188 -33 271 -16 88 17 203 64 267 109 30 22 56 39
58 40 1 1 2 -38 2 -85z m-7 -895 c-8 -7 -3443 -929 -3462 -929 -8 0 -11 102
-11 330 l0 330 27 -7 c16 -5 80 -8 143 -7 96 1 128 5 195 27 101 34 194 88
262 153 l52 52 43 -22 c63 -31 233 -30 338 2 108 34 205 88 276 154 l62 58 43
-19 c95 -42 237 -36 384 16 97 35 166 76 236 140 l59 55 38 -18 c53 -27 212
-31 306 -9 112 26 246 96 315 163 l58 57 44 -19 c68 -30 194 -33 302 -7 92 22
211 74 262 115 l30 24 3 -316 c1 -174 -1 -319 -5 -323z m6250 255 c44 -9 101
-14 128 -12 l49 5 0 -228 0 -228 -52 -15 c-29 -8 -165 -44 -303 -81 -137 -36
-256 -68 -262 -70 -10 -3 -13 32 -13 153 l0 157 74 38 c94 48 188 135 246 225
25 39 47 71 49 71 2 1 40 -6 84 -15z"/>
<path d="M1279 5609 c-218 -32 -440 -207 -549 -433 -49 -101 -70 -188 -70
-291 0 -194 81 -335 238 -413 76 -37 76 -37 201 -37 105 1 137 4 191 24 242
85 447 316 504 568 41 185 1 349 -113 464 -65 65 -142 104 -232 118 -72 12
-90 12 -170 0z m198 -125 c139 -47 215 -162 216 -324 1 -240 -183 -491 -429
-587 -99 -38 -226 -39 -305 -2 -210 98 -247 361 -88 625 131 217 416 352 606
288z"/>
<path d="M5103 3871 c-49 -31 -66 -74 -65 -161 0 -41 7 -106 16 -143 9 -38 16
-70 16 -71 0 -2 -35 -6 -79 -10 -151 -12 -228 -55 -246 -136 -18 -81 85 -197
250 -282 44 -22 81 -42 83 -43 1 -1 -7 -38 -19 -81 -58 -213 3 -364 147 -364
66 0 137 26 206 75 l52 38 30 -39 c52 -69 190 -199 228 -217 111 -52 198 14
198 151 0 37 -20 156 -36 210 -6 21 -4 22 68 22 193 0 301 98 240 216 -36 68
-128 146 -247 208 l-71 37 24 92 c43 169 16 287 -78 335 -35 18 -55 22 -93 18
-58 -6 -148 -46 -200 -87 -21 -17 -39 -29 -41 -28 -1 2 -28 37 -60 77 -135
167 -247 231 -323 183z m118 -146 c24 -19 67 -63 94 -97 90 -113 129 -148 164
-148 36 0 63 12 105 47 74 62 170 90 196 58 18 -22 16 -116 -5 -195 -31 -124
-157 -354 -251 -458 l-39 -44 -62 109 c-34 59 -71 127 -82 150 -39 79 -129
310 -151 388 -24 87 -39 225 -23 225 5 0 30 -16 54 -35z m-78 -438 l28 -74
-21 -36 c-12 -20 -25 -37 -29 -37 -4 0 -46 23 -92 50 -87 53 -159 115 -159
137 0 19 56 31 155 32 l90 1 28 -73z m780 -172 c84 -50 173 -128 163 -144 -10
-16 -109 -32 -181 -29 l-66 3 -29 69 -29 68 20 39 c11 22 25 39 32 39 7 0 47
-20 90 -45z m-664 -166 c51 -18 59 -26 95 -86 l39 -67 -29 -23 c-41 -33 -124
-73 -150 -73 -38 0 -54 26 -54 86 0 53 27 184 38 184 3 0 30 -9 61 -21z m443
-114 l46 -7 21 -84 c20 -79 30 -188 18 -200 -10 -11 -112 84 -170 159 l-61 77
34 35 c19 20 41 33 49 31 9 -3 37 -8 63 -11z"/>
<path d="M12670 5880 l0 -840 165 0 165 0 0 700 0 700 300 0 300 0 0 140 0
140 -465 0 -465 0 0 -840z"/>
<path d="M14015 6153 c-171 -23 -349 -141 -423 -281 -62 -117 -83 -254 -59
-389 53 -292 312 -481 631 -459 265 18 470 178 531 413 19 74 19 233 0 307
-74 283 -356 452 -680 409z m228 -278 c80 -38 128 -108 147 -215 40 -222 -100
-397 -302 -376 -108 11 -187 74 -228 182 -28 76 -25 204 7 275 29 65 92 125
150 143 62 20 175 16 226 -9z"/>
<path d="M15325 6154 c-234 -37 -407 -192 -460 -415 -19 -82 -19 -226 0 -308
45 -187 182 -327 381 -387 73 -22 263 -25 344 -5 83 20 189 75 243 124 26 24
47 48 47 53 0 5 -38 47 -83 92 l-84 84 -58 -41 c-175 -123 -375 -80 -462 97
-24 49 -28 69 -28 147 0 79 4 98 28 147 83 169 291 209 459 88 l56 -40 68 88
c37 48 72 93 78 101 21 27 -97 105 -220 147 -78 26 -230 40 -309 28z"/>
<path d="M17460 6144 c-109 -23 -218 -83 -291 -161 -110 -117 -154 -237 -153
-413 1 -87 5 -118 27 -179 50 -142 135 -236 273 -303 239 -116 558 -76 747 93
l58 52 -28 29 c-15 17 -54 52 -86 80 l-57 50 -37 -32 c-78 -69 -207 -107 -323
-96 -120 13 -203 65 -250 159 -53 106 -91 97 391 97 l421 0 -7 88 c-14 176
-66 303 -164 401 -126 126 -325 178 -521 135z m276 -269 c54 -34 101 -94 110
-142 l7 -33 -267 0 c-303 0 -289 -5 -236 87 53 93 118 124 246 121 81 -3 96
-6 140 -33z"/>
<path d="M20185 6146 c-68 -16 -136 -50 -196 -97 l-49 -39 0 65 0 65 -145 0
-145 0 2 -837 3 -838 150 0 150 0 5 344 5 344 30 -24 c75 -61 166 -97 268
-105 237 -20 457 146 533 402 13 42 18 91 17 169 -1 132 -29 235 -93 332 -117
179 -335 268 -535 219z m138 -270 c63 -23 104 -62 139 -133 29 -59 33 -76 32
-148 0 -44 -5 -99 -12 -122 -17 -58 -68 -122 -126 -158 -44 -27 -57 -30 -130
-30 -118 0 -183 40 -237 145 -31 61 -39 215 -15 287 36 109 128 173 246 172
36 0 82 -6 103 -13z"/>
<path d="M28521 6144 c-145 -31 -286 -127 -362 -245 -47 -74 -78 -175 -85
-276 -19 -282 141 -505 417 -580 45 -12 100 -18 184 -17 136 0 237 23 336 75
75 40 164 120 157 140 -3 9 -40 46 -82 83 l-76 68 -37 -32 c-154 -136 -445
-127 -546 17 -33 46 -55 95 -56 126 -1 16 25 17 414 17 l415 0 0 80 c0 107
-14 169 -61 268 -107 224 -353 334 -618 276z m260 -262 c58 -30 115 -98 125
-151 l7 -31 -268 0 -267 0 6 31 c10 53 67 121 125 151 46 24 65 28 136 28 71
0 90 -4 136 -28z"/>
<path d="M15950 6005 l0 -135 175 0 175 0 0 -415 0 -415 150 0 150 0 0 415 0
415 178 2 177 3 3 133 3 132 -506 0 -505 0 0 -135z"/>
<path d="M18350 5590 l0 -550 150 0 150 0 0 415 0 415 215 0 215 0 0 -415 0
-415 150 0 150 0 0 550 0 550 -515 0 -515 0 0 -550z"/>
<path d="M21020 5590 l0 -550 104 0 104 0 266 331 266 331 0 -331 0 -331 150
0 150 0 0 550 0 550 -117 0 -118 0 -250 -311 -250 -311 -3 311 -2 311 -150 0
-150 0 0 -550z"/>
<path d="M22330 5590 l0 -550 104 0 104 0 263 328 264 327 3 -327 2 -328 150
0 150 0 0 550 0 550 -117 0 -118 0 -250 -311 -250 -311 -3 311 -2 311 -150 0
-150 0 0 -550z"/>
<path d="M23745 6128 c-2 -7 -42 -247 -90 -533 -47 -286 -88 -528 -91 -537 -5
-17 6 -18 130 -18 133 0 136 1 141 23 2 12 25 148 50 301 25 154 47 281 49
283 4 5 24 -37 171 -364 l109 -243 67 0 66 0 138 313 c75 171 138 313 140 315
1 1 21 -114 44 -255 24 -142 48 -284 53 -315 l10 -58 139 0 c118 0 139 2 139
15 0 16 -166 1022 -175 1063 -5 21 -9 22 -138 22 l-132 -1 -125 -291 c-69
-160 -130 -303 -135 -316 -10 -22 -25 7 -155 292 l-145 316 -128 0 c-93 0
-129 -3 -132 -12z"/>
<path d="M25200 5590 l0 -550 150 0 150 0 0 215 0 215 225 0 225 0 0 -215 0
-215 155 0 155 0 0 550 0 550 -155 0 -155 0 0 -200 0 -200 -225 0 -225 0 0
200 0 200 -150 0 -150 0 0 -550z"/>
<path d="M26520 5590 l0 -550 278 0 c308 0 374 9 479 60 75 37 134 101 164
179 17 44 22 77 22 156 0 163 -51 259 -171 323 -87 47 -166 62 -324 62 l-138
0 0 160 0 160 -155 0 -155 0 0 -550z m563 -25 c53 -25 71 -59 72 -130 0 -115
-44 -147 -212 -153 l-113 -4 0 157 0 158 108 -5 c73 -4 121 -11 145 -23z"/>
<path d="M27570 5590 l0 -550 150 0 150 0 0 550 0 550 -150 0 -150 0 0 -550z"/>
<path d="M20650 3080 l0 -840 165 0 165 0 0 304 0 303 158 6 c98 3 179 11 217
21 198 54 336 184 389 365 20 68 21 236 2 306 -36 134 -133 251 -258 310 -123
58 -180 65 -529 65 l-309 0 0 -840z m638 531 c56 -25 106 -75 128 -127 23 -56
18 -152 -12 -212 -49 -99 -119 -131 -301 -139 l-123 -6 0 258 0 257 128 -4
c104 -4 136 -8 180 -27z"/>
<path d="M13915 3346 c-237 -55 -385 -194 -441 -416 -23 -92 -15 -251 18 -340
80 -217 265 -349 517 -366 375 -27 662 246 637 606 -17 245 -154 423 -381 496
-99 32 -258 41 -350 20z m277 -278 c94 -52 144 -162 136 -302 -10 -167 -99
-270 -247 -283 -73 -7 -153 16 -203 57 -21 17 -51 59 -69 96 -28 57 -33 76
-33 147 -2 159 66 266 194 308 48 16 176 3 222 -23z"/>
<path d="M15391 3349 c-67 -13 -164 -63 -215 -109 l-46 -43 0 72 0 71 -140 0
-140 0 0 -840 0 -840 150 0 150 0 0 351 0 351 35 -31 c73 -64 205 -110 315
-111 117 0 247 57 341 150 112 111 169 251 169 420 0 165 -51 298 -156 409
-122 130 -289 184 -463 150z m139 -280 c58 -26 96 -62 128 -124 24 -45 27 -61
27 -155 0 -95 -3 -110 -29 -163 -32 -67 -95 -119 -163 -136 -178 -45 -323 69
-340 267 -13 155 58 287 173 322 55 16 156 11 204 -11z"/>
<path d="M16605 3346 c-218 -51 -360 -172 -427 -364 -20 -57 -23 -86 -22 -197
0 -116 3 -137 27 -198 67 -171 181 -279 351 -333 230 -72 491 -18 644 135 245
246 206 680 -79 870 -125 83 -344 122 -494 87z m275 -277 c96 -53 145 -162
138 -303 -9 -164 -98 -268 -243 -283 -113 -12 -211 36 -264 128 -71 125 -60
298 25 398 60 70 116 92 225 87 57 -2 86 -8 119 -27z"/>
<path d="M19131 3344 c-142 -38 -266 -143 -331 -279 -47 -98 -60 -159 -60
-278 0 -172 51 -299 164 -413 181 -181 444 -203 642 -53 l64 48 0 -64 0 -65
145 0 145 0 0 550 0 550 -145 0 -145 0 0 -66 0 -66 -42 37 c-116 99 -290 139
-437 99z m314 -278 c102 -48 149 -132 150 -266 0 -103 -21 -170 -71 -229 -68
-79 -171 -108 -275 -78 -69 21 -117 60 -154 128 -28 51 -30 60 -30 169 0 109
2 118 30 168 29 54 82 99 140 120 56 20 155 14 210 -12z"/>
<path d="M22255 3344 c-216 -48 -377 -198 -430 -400 -19 -74 -19 -233 0 -307
50 -191 200 -340 396 -393 79 -22 261 -25 339 -5 210 51 373 211 421 411 16
70 16 209 0 280 -46 195 -191 345 -391 405 -80 24 -249 28 -335 9z m282 -275
c94 -49 151 -176 140 -311 -13 -157 -105 -260 -245 -274 -168 -18 -295 97
-309 278 -12 157 65 289 188 327 58 18 172 7 226 -20z"/>
<path d="M23567 3345 c-263 -53 -437 -275 -437 -560 0 -223 109 -410 290 -499
227 -111 538 -74 701 83 l53 51 -89 90 -89 89 -33 -30 c-159 -139 -395 -107
-481 65 -67 132 -35 322 68 407 101 84 279 74 401 -22 39 -30 41 -31 54 -13 7
11 40 55 74 99 34 43 61 83 61 87 0 4 -24 25 -53 47 -136 103 -332 143 -520
106z"/>
<path d="M24651 3344 c-142 -38 -265 -142 -330 -277 -48 -100 -61 -161 -61
-280 0 -172 51 -299 164 -413 181 -181 444 -203 642 -53 l64 48 0 -64 0 -65
145 0 145 0 0 550 0 550 -145 0 -145 0 0 -67 0 -67 -27 26 c-110 105 -302 153
-452 112z m314 -278 c102 -48 149 -132 150 -266 0 -103 -21 -170 -71 -229 -68
-79 -171 -108 -275 -78 -69 21 -117 60 -154 128 -28 51 -30 60 -30 169 0 109
2 118 30 168 29 54 82 99 140 120 56 20 155 14 210 -12z"/>
<path d="M27105 3346 c-218 -51 -360 -172 -427 -364 -20 -57 -23 -86 -22 -197
0 -116 3 -137 27 -198 67 -171 181 -279 351 -333 289 -91 609 20 734 254 44
83 61 142 69 237 8 109 -10 207 -57 302 -68 140 -173 231 -323 279 -101 32
-260 41 -352 20z m275 -277 c96 -53 145 -162 138 -303 -9 -167 -99 -270 -247
-283 -73 -7 -153 16 -203 57 -21 17 -51 59 -69 96 -29 58 -33 76 -33 148 0 99
21 167 70 225 60 70 116 92 225 87 57 -2 86 -8 119 -27z"/>
<path d="M29921 3349 c-179 -35 -346 -204 -396 -404 -19 -75 -19 -221 0 -303
50 -213 220 -379 423 -414 135 -23 292 22 395 112 l47 42 0 -71 0 -71 140 0
140 0 0 550 0 550 -140 0 -140 0 0 -71 0 -71 -47 43 c-110 97 -270 138 -422
108z m270 -271 c54 -16 115 -70 147 -132 24 -45 27 -62 27 -151 0 -87 -3 -107
-26 -155 -44 -94 -112 -145 -208 -157 -109 -13 -213 41 -266 138 -25 47 -30
67 -33 149 -3 79 0 104 17 150 12 30 29 64 39 75 26 31 83 71 117 83 41 14
139 14 186 0z"/>
<path d="M12620 2790 l0 -550 150 0 150 0 0 415 0 415 230 0 230 0 0 135 0
135 -380 0 -380 0 0 -550z"/>
<path d="M17640 3158 c0 -254 -29 -434 -94 -593 l-24 -60 -66 -3 -66 -3 0
-255 0 -255 123 3 122 3 3 123 3 122 389 0 389 0 3 -122 3 -123 123 -3 122 -3
0 255 0 255 -82 3 -83 3 -3 418 -2 417 -430 0 -430 0 0 -182z m560 -373 l0
-285 -190 0 c-104 0 -190 1 -190 3 0 2 11 37 25 78 33 94 65 280 65 372 0 125
-10 117 151 117 l139 0 0 -285z"/>
<path d="M25590 3205 l0 -135 175 0 175 0 0 -415 0 -415 150 0 150 0 0 415 0
415 175 0 175 0 0 135 0 135 -500 0 -500 0 0 -135z"/>
<path d="M28046 2813 c-48 -291 -90 -538 -93 -550 -5 -23 -5 -23 130 -23 l135
0 11 63 c6 34 27 163 46 287 20 124 39 233 43 243 5 13 46 -67 146 -287 l138
-306 68 0 67 0 15 38 c8 20 70 163 138 316 l124 280 52 -315 c29 -173 53 -315
53 -316 2 -6 281 -3 281 2 0 3 -40 248 -90 545 -49 297 -90 542 -90 545 0 3
-60 5 -133 5 l-133 0 -134 -310 c-73 -170 -136 -310 -139 -310 -3 0 -69 139
-146 308 l-140 307 -130 3 -130 3 -89 -528z"/>
</g>
</svg>