<svg version="1.0" xmlns="http://www.w3.org/2000/svg"
  viewBox="0 0 1687.000000 529.000000"
 preserveAspectRatio="xMidYMid meet">
<metadata>
Created by potrace 1.16, written by Peter Selinger 2001-2019
</metadata>
<g transform="translate(0.000000,529.000000) scale(0.100000,-0.100000)"
fill="#1C3764" stroke="none">
<path d="M2130 5114 c-311 -96 -900 -279 -1310 -405 -410 -127 -759 -237 -777
-244 l-32 -13 -3 -309 c-2 -169 -2 -1160 0 -2202 l4 -1893 23 -24 c13 -13 36
-24 50 -24 33 0 2642 807 2673 827 55 35 52 -95 50 2249 l-3 2166 -28 24 c-15
13 -40 24 -55 23 -15 0 -281 -79 -592 -175z m560 -1280 l0 -1325 -22 6 c-13 3
-65 27 -117 52 -197 95 -325 276 -383 538 -18 78 -21 139 -25 449 l-5 359 -24
24 c-33 33 -64 30 -253 -28 -1166 -360 -1119 -345 -1148 -388 -23 -34 -23 -38
-23 -345 0 -341 -8 -435 -50 -602 -52 -207 -138 -391 -265 -569 -65 -92 -229
-275 -246 -275 -5 0 -9 350 -9 884 0 979 -6 896 65 896 138 0 412 102 587 219
77 52 78 52 120 40 24 -7 80 -12 124 -11 183 2 374 106 515 281 172 212 214
435 128 681 -16 47 -31 91 -32 99 -1 9 147 60 523 177 289 89 528 163 533 163
4 1 7 -596 7 -1325z m-1157 892 c14 -35 33 -101 43 -147 28 -139 -2 -269 -95
-411 -149 -229 -423 -350 -607 -269 l-43 19 -53 -40 c-178 -133 -404 -229
-600 -252 l-48 -6 0 373 0 374 678 211 c372 116 682 211 688 211 7 1 23 -28
37 -63z m487 -1140 c0 -364 21 -524 94 -703 70 -172 211 -332 362 -410 l78
-41 -150 -47 c-82 -25 -168 -52 -191 -60 l-43 -14 0 93 c0 176 -56 322 -166
432 -114 115 -272 167 -441 146 -359 -45 -688 -353 -809 -758 -21 -71 -27
-117 -31 -225 l-5 -136 -197 -61 c-107 -33 -197 -60 -198 -59 -1 2 25 34 58
72 183 213 329 506 387 776 33 154 42 272 42 578 l0 290 68 21 c37 11 200 62
362 111 162 50 399 124 525 164 127 40 236 74 243 74 9 1 12 -54 12 -243z
m-302 -726 c78 -14 142 -49 203 -110 217 -216 168 -618 -154 -1250 -112 -220
-319 -570 -337 -570 -11 0 -185 186 -255 275 -153 190 -267 401 -311 572 -23
87 -25 113 -21 228 3 113 8 142 36 225 137 405 517 691 839 630z m969 -1937
c-4 -4 -2553 -793 -2562 -793 -9 0 -6 1419 4 1424 5 3 145 48 312 100 l304 94
26 -77 c87 -252 236 -475 493 -738 194 -200 187 -199 291 -39 177 271 391 678
483 916 38 99 75 213 104 325 l13 49 265 82 265 82 3 -711 c1 -390 1 -712 -1
-714z"/>
<path d="M1633 2606 c-34 -16 -108 -85 -164 -155 l-36 -43 -39 24 c-116 73
-221 60 -270 -34 -18 -35 -18 -151 0 -211 l14 -47 -57 -32 c-64 -37 -156 -120
-177 -160 -30 -59 -8 -124 53 -153 20 -10 68 -20 105 -23 l67 -5 -7 -31 c-4
-17 -7 -71 -7 -119 0 -85 1 -90 28 -113 64 -55 154 -16 261 112 l59 71 34 -23
c50 -34 128 -57 168 -50 43 8 94 50 111 93 18 43 18 115 -1 187 -9 33 -14 60
-13 61 2 2 31 19 65 39 84 49 158 123 173 173 27 90 -41 152 -169 153 l-63 0
6 28 c25 113 16 211 -23 246 -26 23 -80 29 -118 12z m23 -229 c-22 -96 -105
-302 -166 -410 l-52 -95 -27 31 c-109 127 -204 346 -186 428 9 42 48 38 124
-11 38 -25 73 -40 93 -40 33 0 57 22 168 150 51 60 55 63 58 38 2 -14 -4 -55
-12 -91z m224 -184 c7 -7 -66 -70 -118 -100 -40 -23 -45 -24 -59 -10 -15 14
-14 20 4 64 13 32 27 50 44 55 25 7 119 1 129 -9z m-680 -205 c0 -10 -7 -36
-16 -58 l-16 -40 -73 0 c-41 0 -76 4 -80 9 -6 11 63 70 125 105 46 26 60 22
60 -16z m461 -119 c13 -47 10 -129 -6 -135 -18 -7 -73 11 -104 35 l-24 18 27
46 c25 42 64 69 91 63 5 -1 12 -13 16 -27z m-310 -85 c18 -16 17 -18 -12 -59
-38 -52 -107 -121 -114 -113 -7 6 24 160 33 170 7 6 37 15 61 17 8 0 23 -6 32
-15z"/>
<path d="M4067 4573 c-4 -3 -7 -273 -7 -600 l0 -593 120 0 120 0 0 495 0 495
213 2 212 3 0 100 0 100 -326 3 c-179 1 -328 -1 -332 -5z"/>
<path d="M5025 4174 c-224 -34 -366 -208 -352 -430 9 -153 89 -273 225 -337
64 -31 72 -32 192 -32 164 0 216 20 311 114 88 88 112 149 112 281 0 75 -5
107 -22 153 -58 148 -191 240 -362 251 -41 2 -87 2 -104 0z m162 -205 c115
-55 139 -259 44 -359 -72 -75 -193 -78 -269 -7 -75 70 -87 218 -26 310 48 73
163 99 251 56z"/>
<path d="M5938 4170 c-207 -35 -345 -223 -324 -442 13 -147 88 -258 214 -320
65 -32 70 -33 197 -33 126 0 132 1 195 32 36 17 81 48 100 68 l34 35 -61 62
-62 62 -44 -32 c-86 -61 -192 -66 -269 -10 -67 47 -99 188 -62 276 54 131 212
163 337 68 l33 -25 53 70 53 71 -24 25 c-33 36 -110 72 -187 89 -72 15 -111
16 -183 4z"/>
<path d="M7487 4170 c-119 -20 -241 -109 -291 -213 -107 -217 -15 -472 201
-558 51 -21 74 -24 188 -23 146 0 196 14 287 81 75 54 75 60 7 121 l-59 53
-38 -31 c-68 -54 -183 -75 -275 -49 -62 17 -120 77 -141 147 l-7 22 300 0 301
0 0 48 c-1 156 -77 296 -197 359 -87 47 -173 60 -276 43z m150 -181 c48 -18
113 -92 113 -129 0 -6 -64 -10 -190 -10 -126 0 -190 4 -190 10 0 36 64 111
110 129 34 13 122 13 157 0z"/>
<path d="M9401 4164 c-59 -16 -107 -42 -136 -74 -27 -30 -35 -25 -35 25 l0 45
-100 0 -100 0 0 -595 0 -595 110 0 110 0 0 247 0 246 23 -20 c76 -70 230 -94
339 -53 75 28 160 106 198 180 122 241 7 532 -235 595 -72 18 -103 18 -174 -1z
m127 -202 c69 -31 108 -116 99 -220 -9 -117 -81 -187 -193 -187 -77 0 -124 29
-159 99 -49 98 -26 245 45 296 56 40 138 45 208 12z"/>
<path d="M15340 4166 c-129 -28 -220 -98 -277 -214 -37 -74 -38 -79 -38 -187
0 -104 2 -114 32 -176 40 -81 102 -140 191 -182 59 -28 79 -32 173 -35 153 -6
272 33 349 112 l34 36 -56 57 -57 57 -23 -21 c-47 -42 -110 -66 -190 -71 -69
-4 -83 -2 -133 23 -58 28 -97 74 -110 128 l-7 27 301 0 301 0 0 28 c-1 170
-89 330 -216 388 -91 43 -175 52 -274 30z m176 -185 c42 -19 86 -68 99 -108
l6 -23 -190 0 c-139 0 -191 3 -191 12 0 6 11 30 25 53 46 79 159 108 251 66z"/>
<path d="M6400 4065 l0 -95 125 0 125 0 0 -295 0 -295 105 0 105 0 0 295 0
295 125 0 125 0 0 95 0 95 -355 0 -355 0 0 -95z"/>
<path d="M8100 3770 l0 -390 110 0 110 0 0 295 0 295 155 0 155 0 0 -295 0
-295 105 0 105 0 0 390 0 390 -370 0 -370 0 0 -390z"/>
<path d="M10000 3770 l0 -390 78 1 77 0 185 231 185 231 3 -231 2 -232 110 0
110 0 0 390 0 390 -88 0 -88 0 -175 -217 -174 -216 -3 216 -2 217 -110 0 -110
0 0 -390z"/>
<path d="M10930 3770 l0 -390 78 0 77 0 185 231 185 230 3 -230 2 -231 110 0
110 0 0 390 0 390 -87 0 -88 0 -177 -221 -178 -221 0 221 0 221 -110 0 -110 0
0 -390z"/>
<path d="M11940 4155 c0 -10 -120 -728 -125 -753 -6 -23 -5 -23 92 -20 l97 3
37 215 36 215 39 -85 c22 -47 67 -145 99 -218 l60 -133 49 3 49 3 96 217 c76
172 97 213 103 195 4 -12 21 -111 39 -219 l32 -198 99 0 c72 0 98 3 98 13 0 6
-28 182 -62 390 l-63 377 -96 0 -96 0 -94 -220 c-51 -121 -96 -216 -100 -212
-4 4 -50 102 -103 217 l-95 210 -96 3 c-52 1 -95 0 -95 -3z"/>
<path d="M12980 3770 l0 -390 105 0 104 0 3 153 3 152 158 3 157 3 0 -156 0
-155 110 0 110 0 0 390 0 390 -110 0 -110 0 0 -140 0 -140 -160 0 -160 0 0
140 0 140 -105 0 -105 0 0 -390z"/>
<path d="M13920 3769 l0 -390 223 4 c240 4 267 9 343 60 89 60 126 187 89 312
-35 121 -128 173 -327 182 l-118 6 0 108 0 109 -105 0 -105 0 0 -391z m371 -9
c46 -13 68 -38 76 -84 7 -43 -9 -86 -40 -106 -13 -8 -59 -16 -109 -18 l-88 -4
0 111 0 111 63 0 c34 0 78 -5 98 -10z"/>
<path d="M14660 3770 l0 -390 110 0 110 0 0 390 0 390 -110 0 -110 0 0 -390z"/>
<path d="M9747 2683 c-4 -3 -7 -273 -7 -600 l0 -593 120 0 120 0 0 215 0 215
84 0 c213 0 363 75 433 218 26 52 28 66 28 172 0 100 -3 121 -23 161 -58 117
-167 189 -315 209 -86 11 -430 14 -440 3z m453 -225 c103 -52 128 -180 53
-269 -37 -44 -81 -60 -184 -66 l-89 -6 0 182 0 181 88 0 c71 0 96 -4 132 -22z"/>
<path d="M4898 2261 c-75 -24 -116 -51 -172 -111 -106 -113 -132 -291 -66
-445 29 -67 119 -157 188 -188 203 -91 453 -28 560 141 104 163 74 401 -66
523 -20 18 -66 46 -102 63 -58 28 -76 31 -175 33 -86 2 -122 -1 -167 -16z
m250 -185 c18 -9 44 -35 60 -58 25 -38 27 -50 27 -138 0 -90 -2 -100 -29 -138
-71 -103 -235 -109 -308 -11 -88 118 -54 294 67 351 48 22 134 20 183 -6z"/>
<path d="M5970 2271 c-40 -13 -85 -38 -119 -67 l-31 -26 0 46 0 46 -105 0
-105 0 0 -595 0 -595 110 0 110 0 0 247 0 246 23 -21 c12 -11 48 -33 80 -48
72 -32 175 -37 252 -11 266 90 344 480 137 686 -71 71 -129 95 -237 98 -49 1
-101 -1 -115 -6z m163 -213 c99 -76 105 -262 11 -350 -76 -71 -191 -64 -261
15 -72 82 -72 238 0 316 36 38 76 52 148 48 54 -2 73 -8 102 -29z"/>
<path d="M6815 2263 c-117 -42 -196 -111 -244 -212 -23 -50 -26 -68 -26 -171
0 -110 1 -118 33 -182 78 -160 256 -246 451 -218 283 40 433 317 315 580 -35
78 -120 159 -201 191 -81 31 -255 37 -328 12z m231 -182 c104 -47 145 -202 85
-319 -70 -138 -273 -135 -342 5 -35 70 -33 172 3 234 32 55 46 67 95 85 53 19
111 17 159 -5z"/>
<path d="M8628 2265 c-51 -19 -120 -67 -153 -107 -16 -18 -42 -62 -59 -98 -29
-61 -31 -72 -31 -180 0 -109 2 -119 32 -182 106 -225 372 -293 552 -143 l31
27 0 -46 0 -46 105 0 105 0 0 390 0 390 -105 0 -105 0 0 -46 0 -46 -31 27
c-65 54 -107 69 -209 72 -65 2 -107 -2 -132 -12z m262 -194 c57 -30 91 -88 97
-162 3 -35 0 -83 -6 -107 -14 -51 -64 -110 -108 -128 -79 -34 -180 -4 -229 68
-53 77 -43 238 19 296 58 54 160 69 227 33z"/>
<path d="M10845 2266 c-197 -64 -312 -251 -278 -450 32 -186 157 -307 349
-336 194 -30 379 62 457 228 30 62 32 75 32 172 0 97 -2 110 -32 172 -40 85
-106 151 -191 191 -62 29 -76 32 -182 34 -75 2 -129 -2 -155 -11z m249 -195
c77 -48 111 -199 67 -296 -68 -151 -272 -154 -348 -5 -29 57 -31 157 -4 215
22 48 67 93 107 105 46 15 139 5 178 -19z"/>
<path d="M11768 2261 c-73 -24 -117 -52 -163 -103 -103 -113 -131 -310 -65
-462 28 -67 109 -148 178 -179 150 -68 339 -52 462 38 70 51 70 60 2 128 l-58
58 -53 -35 c-121 -82 -257 -53 -316 69 -24 49 -27 64 -23 125 8 111 67 181
164 196 63 9 119 -4 173 -42 l50 -33 52 70 52 70 -28 29 c-15 15 -55 41 -88
56 -54 25 -76 29 -172 31 -86 2 -122 -1 -167 -16z"/>
<path d="M12543 2259 c-160 -62 -262 -258 -233 -446 47 -296 360 -437 581
-262 l39 31 0 -46 0 -46 100 0 100 0 0 390 0 390 -100 0 -100 0 0 -45 0 -45
-49 35 c-26 19 -67 42 -91 50 -61 22 -183 19 -247 -6z m277 -189 c25 -13 49
-37 67 -67 50 -86 33 -234 -34 -295 -50 -46 -136 -60 -200 -33 -48 20 -71 41
-94 86 -59 116 -13 276 91 318 43 17 127 13 170 -9z"/>
<path d="M14285 2263 c-117 -42 -196 -111 -244 -212 -23 -50 -26 -68 -26 -171
0 -104 3 -121 27 -172 94 -202 337 -286 571 -198 80 30 165 111 203 192 27 58
29 72 29 178 0 106 -2 120 -29 178 -37 80 -122 161 -203 193 -81 31 -255 37
-328 12z m235 -185 c77 -39 118 -127 106 -226 -11 -91 -48 -147 -119 -177 -89
-37 -190 -4 -242 80 -26 42 -30 57 -30 124 0 65 4 83 27 122 32 55 46 67 95
85 56 20 113 17 163 -8z"/>
<path d="M16263 2251 c-105 -50 -177 -140 -207 -256 -54 -203 34 -405 212
-488 56 -26 77 -31 143 -30 85 0 170 31 222 80 l27 27 0 -47 0 -47 105 0 105
0 0 390 0 390 -105 0 -105 0 0 -47 0 -47 -27 26 c-56 52 -111 72 -213 75 -89
4 -99 2 -157 -26z m285 -175 c137 -71 138 -321 2 -394 -90 -48 -200 -14 -255
79 -16 27 -20 52 -20 120 0 76 3 90 27 127 16 23 45 50 65 61 46 24 141 28
181 7z"/>
<path d="M4030 1880 l0 -390 105 0 105 0 0 295 0 295 165 0 165 0 0 95 0 95
-270 0 -270 0 0 -390z"/>
<path d="M7600 2148 c0 -147 -20 -286 -54 -388 -14 -41 -26 -76 -26 -77 0 -2
-22 -3 -50 -3 l-50 0 0 -185 0 -186 88 3 87 3 3 88 3 87 277 -2 277 -3 3 -87
3 -88 84 0 85 0 0 185 0 185 -60 0 -60 0 0 295 0 295 -305 0 -305 0 0 -122z
m400 -268 l0 -200 -136 0 c-126 0 -136 1 -129 18 22 59 46 167 50 237 4 44 8
95 11 113 l5 32 99 0 100 0 0 -200z"/>
<path d="M13250 2175 l0 -95 125 0 125 0 0 -295 0 -295 110 0 110 0 0 295 0
294 123 3 122 3 3 93 3 92 -361 0 -360 0 0 -95z"/>
<path d="M15000 1893 c-34 -208 -65 -384 -68 -390 -3 -10 20 -13 95 -13 l99 0
34 214 c19 118 37 213 40 211 3 -2 48 -98 100 -214 l95 -212 50 3 50 3 96 218
c73 165 98 213 102 195 3 -13 20 -112 38 -220 l32 -198 102 0 102 0 -65 390
-65 390 -96 0 -96 0 -94 -220 c-52 -121 -98 -217 -102 -213 -4 5 -50 103 -102
218 l-96 210 -94 3 -93 3 -64 -378z"/>
</g>
</svg>