<?xml version="1.0" encoding="UTF-8"?> <svg xmlns="http://www.w3.org/2000/svg" width="425" height="132" viewBox="0 0 425 132" fill="none"><g clip-path="url(#clip0_235_43)"><path d="M261 89.0799V62.1599H253.77V56.3099H274.4V62.1599H267.16V89.0799H261Z" fill="#723DD3"></path><path d="M178 89.0799V62.1599H170.77V56.3099H191.4V62.1599H184.17V89.0799H178Z" fill="#723DD3"></path><path d="M353.62 88.7099V62.5899C352.039 62.5885 350.472 62.8836 349 63.4599C347.567 64.0127 346.243 64.8151 345.09 65.8299C343.96 66.8279 343.036 68.0372 342.37 69.3899C341.706 70.7719 341.364 72.2866 341.37 73.8199V88.7399H335V56.3199H341.4V60.7699C343.081 59.3896 344.972 58.2857 347 57.4999C349.109 56.7064 351.346 56.3064 353.6 56.3199H360.03V88.7399H353.6L353.62 88.7099Z" fill="#723DD3"></path><path d="M373.25 88.72C371.951 88.725 370.658 88.5637 369.4 88.24C368.022 87.8519 366.683 87.3363 365.4 86.7V80.08C366.638 80.7708 367.95 81.3209 369.31 81.72C370.499 82.0661 371.732 82.2412 372.97 82.24C374.463 82.3232 375.949 81.9762 377.25 81.24C377.711 80.9484 378.088 80.541 378.342 80.0585C378.596 79.5759 378.72 79.0351 378.7 78.49C378.72 77.9548 378.614 77.4223 378.39 76.9359C378.165 76.4494 377.83 76.0226 377.41 75.69C376.378 74.9565 375.123 74.6031 373.86 74.69H371.27V68.93H373.86C374.927 68.9765 375.98 68.6746 376.86 68.07C377.222 67.8243 377.517 67.4911 377.716 67.1013C377.916 66.7115 378.013 66.2776 378 65.84C378.003 65.3843 377.898 64.9344 377.693 64.5274C377.488 64.1205 377.188 63.7683 376.82 63.5C375.768 62.8348 374.531 62.523 373.29 62.61C372.131 62.6079 370.978 62.7798 369.87 63.12C368.776 63.4085 367.754 63.9228 366.87 64.63V58C367.964 57.4571 369.11 57.0249 370.29 56.71C372.797 56.0887 375.43 56.1928 377.88 57.01C379.123 57.4278 380.281 58.0645 381.3 58.89C382.254 59.6685 383.028 60.6442 383.57 61.75C384.104 62.857 384.377 64.0712 384.37 65.3C384.383 66.4878 384.108 67.6611 383.57 68.72C383.017 69.8017 382.244 70.7556 381.3 71.52C382.531 72.357 383.556 73.4611 384.3 74.75C385.042 76.0642 385.425 77.5508 385.41 79.06C385.429 80.3941 385.131 81.7136 384.54 82.91C383.976 84.0921 383.136 85.1211 382.09 85.91C380.935 86.7995 379.632 87.4767 378.24 87.91C376.621 88.4103 374.934 88.6532 373.24 88.63L373.25 88.72Z" fill="#723DD3"></path><path d="M390.69 56.31H396.35C398.487 56.3035 400.594 56.8039 402.5 57.77C404.41 58.7314 406.089 60.0962 407.42 61.77C408.714 60.0836 410.376 58.7154 412.28 57.77C414.185 56.8111 416.288 56.3111 418.42 56.31H424.1V89.08H417.77V63.15C416.944 63.1553 416.132 63.3576 415.4 63.74C413.443 64.5271 411.852 66.0183 410.94 67.92C410.472 68.8967 410.233 69.9671 410.24 71.05V83.53H404.55V71C404.556 69.9172 404.316 68.8472 403.85 67.87C403.398 66.938 402.77 66.1025 402 65.41C401.231 64.707 400.34 64.1511 399.37 63.77C398.655 63.3825 397.854 63.1798 397.04 63.18V89.08H390.7V56.31H390.69Z" fill="#723DD3"></path><path d="M166.55 58.47V65.58C165.933 65.1216 165.261 64.7419 164.55 64.45C163.842 64.1536 163.109 63.9194 162.36 63.75C161.64 63.59 160.96 63.48 160.36 63.4C159.76 63.32 159.2 63.29 158.82 63.29C157.511 63.2587 156.21 63.5005 155 64C153.876 64.459 152.856 65.1391 152 66C151.17 66.8691 150.512 67.8869 150.06 69C149.597 70.1263 149.359 71.3323 149.36 72.55C149.344 73.7627 149.582 74.9654 150.06 76.08C150.525 77.1626 151.182 78.1519 152 79C152.855 79.8622 153.875 80.5425 155 81C156.176 81.4976 157.443 81.7461 158.72 81.73C160.185 81.7541 161.648 81.6099 163.08 81.3C164.438 80.9513 165.711 80.3285 166.82 79.47V86.58C165.546 87.2167 164.226 87.755 162.87 88.19C161.568 88.5547 160.222 88.7365 158.87 88.73C156.622 88.75 154.393 88.311 152.32 87.44C150.369 86.6233 148.596 85.4345 147.1 83.94C145.626 82.4701 144.463 80.7187 143.68 78.79C142.852 76.8175 142.425 74.6995 142.425 72.56C142.425 70.4206 142.852 68.3026 143.68 66.33C144.494 64.4117 145.653 62.6592 147.1 61.16C148.552 59.6421 150.302 58.4404 152.24 57.63C154.265 56.7634 156.447 56.3242 158.65 56.34C160.002 56.3269 161.348 56.5053 162.65 56.87C164.009 57.2829 165.325 57.8254 166.58 58.49L166.55 58.47Z" fill="#723DD3"></path><path d="M217.12 56.2999V74.4999C217.147 76.475 216.783 78.4358 216.05 80.2699C215.384 81.9487 214.395 83.4809 213.14 84.7799C211.894 86.07 210.396 87.091 208.74 87.7799C206.998 88.494 205.133 88.8576 203.25 88.8499C202.15 88.8499 196.94 88.1999 196.2 88.0399V82.2699C196.89 82.4599 201.94 82.8299 203.11 82.8299C204.77 82.8854 206.408 82.4394 207.81 81.5499C209.104 80.6894 210.069 79.4174 210.55 77.9399H209.46C207.525 77.96 205.604 77.5963 203.81 76.8699C202.129 76.2049 200.598 75.2085 199.31 73.9399C198.036 72.6522 197.039 71.1174 196.38 69.4299C195.659 67.582 195.295 65.6136 195.31 63.6299V56.3199H201.36V63.6299C201.3 64.7427 201.461 65.8564 201.834 66.9067C202.206 67.957 202.783 68.9233 203.53 69.7499C204.306 70.5189 205.235 71.1164 206.256 71.504C207.278 71.8916 208.369 72.0605 209.46 71.9999H211.09V56.3199H217.09L217.12 56.2999Z" fill="#723DD3"></path><path d="M300.09 56.4399V74.6399C300.11 76.6163 299.74 78.5772 299 80.4099C298.341 82.0956 297.352 83.6324 296.09 84.9299C294.841 86.1992 293.347 87.2026 291.7 87.8799C289.955 88.5948 288.086 88.9584 286.2 88.9499C285.11 88.9499 279.9 88.2999 279.15 88.1399V82.4099C279.85 82.5999 284.9 82.9699 286.06 82.9699C287.723 83.0256 289.364 82.5796 290.77 81.6899C292.064 80.8294 293.029 79.5575 293.51 78.0799H292.42C290.487 78.099 288.569 77.7318 286.78 76.9999C285.103 76.3323 283.576 75.3361 282.29 74.0699C281.01 72.7873 280.012 71.2511 279.36 69.5599C278.639 67.712 278.275 65.7437 278.29 63.7599V56.4599H284.29V63.7699C284.23 64.882 284.39 65.9949 284.761 67.045C285.131 68.0952 285.705 69.0619 286.45 69.8899C287.226 70.663 288.156 71.2638 289.179 71.6532C290.203 72.0427 291.297 72.2119 292.39 72.1499H294.02V56.4599H300.07L300.09 56.4399Z" fill="#723DD3"></path><path d="M225 70.9999C224.984 69.0096 225.382 67.0377 226.17 65.2099C226.919 63.4849 227.988 61.9173 229.32 60.5899C230.654 59.2786 232.221 58.2273 233.94 57.4899C235.692 56.7326 237.581 56.3445 239.49 56.3499H247.36V82.3699H250.43V93.7899H244.86V88.2099H227.86V93.7899H222.28V82.3699H225V70.9999ZM239.49 62.4299C238.394 62.4225 237.308 62.6403 236.3 63.0699C235.298 63.4786 234.395 64.0955 233.65 64.8799C232.903 65.6838 232.301 66.6108 231.87 67.6199C231.41 68.6969 231.181 69.8588 231.2 71.0299V82.3999H241.2V62.3999H239.53L239.49 62.4299Z" fill="#723DD3"></path><path d="M315.63 56.6H307.76V89H313.56V81.6C315.28 81.8939 317.043 81.827 318.736 81.4036C320.429 80.9801 322.015 80.2092 323.395 79.14C324.774 78.0707 325.916 76.7264 326.748 75.1923C327.58 73.6583 328.084 71.968 328.228 70.2288C328.372 68.4895 328.153 66.7394 327.584 65.0893C327.016 63.4393 326.111 61.9255 324.926 60.644C323.741 59.3624 322.303 58.3411 320.703 57.645C319.103 56.9488 317.375 56.5929 315.63 56.6ZM314.4 76.89C314.12 76.89 313.84 76.89 313.56 76.89V62.31H314.4C319.13 62.31 322.94 65.59 322.94 69.62C322.94 73.65 319.13 76.89 314.4 76.89Z" fill="#723DD3"></path><path d="M66.37 61.65C67.3184 61.9208 68.3333 61.8318 69.22 61.4C69.95 60.89 70.11 59.78 70.32 58.4C70.4447 57.3848 70.652 56.3814 70.94 55.4C71.32 53.68 71.7 51.91 72.09 50.13C72.71 47.25 73.34 44.36 73.98 41.5V41.29L74.17 41.18C74.8823 40.8884 75.6635 40.8086 76.42 40.95C76.8059 40.9844 77.1941 40.9844 77.58 40.95L78.13 40.88V41.44C77.98 45.55 76.86 50.13 75.77 54.56C75.2 56.89 74.61 59.29 74.18 61.56C74.53 61.56 74.9 61.56 75.26 61.56C76.0389 61.6815 76.8357 61.6094 77.58 61.35V61.19C79.04 54.67 80.58 47.94 81.84 41.29V41.04L82.07 40.94C88.78 38.14 97.9 34.33 102.42 26.58C100.893 27.0122 99.3004 27.1614 97.72 27.02C91.13 26.38 86.48 19.83 82 13.5C79.06 9.35997 76 5.06997 72.44 2.49997C68.06 -0.72003 60.55 -1.44003 53.6 4.10997L53.44 4.22997H53.24C52.87 4.22997 47.99 4.22997 44.33 4.22997C45.7 6.28997 49.48 12.1 50.2 14.41V14.48V14.56C50.09 26.07 58.73 37.2 69.86 39.91L70.57 40.08V40.73C70.5946 41.0128 70.5946 41.2972 70.57 41.58C70.11 43.79 69.57 46.04 69.1 48.22C68.06 52.68 67 57.29 66.37 61.65ZM59.22 11H58.86C58.3789 10.8953 57.9367 10.6581 57.5832 10.3153C57.2298 9.97249 56.9793 9.53767 56.86 9.05997C56.7652 8.61442 56.8104 8.15047 56.9894 7.7316C57.1684 7.31273 57.4725 6.9594 57.86 6.71997C58.3455 6.46183 58.9025 6.37091 59.4448 6.4613C59.9871 6.55169 60.4845 6.81834 60.86 7.21997C61.2056 7.54612 61.4304 7.97987 61.4976 8.45031C61.5648 8.92076 61.4705 9.40009 61.23 9.80997C61.0294 10.1677 60.7378 10.4661 60.3849 10.675C60.032 10.884 59.6301 10.9961 59.22 11Z" fill="#723DD3"></path><path d="M44.27 55.3L30.69 57.92L30.29 55.69C30.1583 54.9236 30.1788 54.1389 30.3503 53.3805C30.5219 52.6221 30.8412 51.9049 31.29 51.27C31.7324 50.6296 32.2981 50.0839 32.9541 49.6649C33.61 49.246 34.343 48.9621 35.11 48.83L37.11 48.48C37.8763 48.3477 38.6612 48.3679 39.4197 48.5395C40.1781 48.7111 40.8953 49.0307 41.53 49.48C42.1715 49.9199 42.7187 50.4835 43.1395 51.1378C43.5602 51.792 43.846 52.5237 43.98 53.29L44.27 55.3Z" fill="#02BF89"></path><path d="M30.29 55.69C30.1583 54.9236 30.1788 54.1389 30.3503 53.3805C30.5219 52.6221 30.8412 51.9049 31.29 51.27C31.7324 50.6296 32.2981 50.0839 32.9541 49.6649C33.61 49.246 34.343 48.9621 35.11 48.83L37.11 48.48C37.8763 48.3477 38.6612 48.3679 39.4197 48.5395C40.1781 48.7111 40.8953 49.0307 41.53 49.48C42.1715 49.9199 42.7187 50.4835 43.1395 51.1378C43.5602 51.792 43.846 52.5237 43.98 53.29L44.34 55.29L30.69 57.92L30.29 55.69Z" fill="#02BF89"></path><path d="M55.62 128.74C55.1779 129.379 54.6135 129.923 53.9595 130.342C53.3055 130.761 52.5749 131.046 51.81 131.18L49.81 131.53C48.274 131.792 46.6967 131.437 45.4214 130.541C44.146 129.646 43.2758 128.284 43 126.75L38 99L51.9 98.14L56.56 124.27C56.706 125.04 56.6982 125.832 56.5368 126.599C56.3755 127.366 56.0639 128.094 55.62 128.74Z" fill="#02BF89"></path><path d="M55.62 128.74C55.1779 129.379 54.6135 129.923 53.9595 130.342C53.3055 130.761 52.5749 131.046 51.81 131.18L49.81 131.53C48.274 131.792 46.6967 131.437 45.4214 130.541C44.146 129.646 43.2758 128.284 43 126.75L38 99L51.9 98.14L56.56 124.27C56.706 125.04 56.6982 125.832 56.5368 126.599C56.3755 127.366 56.0639 128.094 55.62 128.74Z" fill="#02BF89"></path><path d="M125.21 67.3999L100.58 93.2999C100.009 93.8951 99.2336 94.2523 98.41 94.2999L52.71 97.1499H52.23H51.76L37.86 98.0199H37.39H36.91L6.61003 99.9099C5.74886 99.9683 4.89911 99.6868 4.24297 99.126C3.58683 98.5652 3.17652 97.7697 3.10003 96.9099L2.9698e-05 67.8899C-0.0901365 67.0628 0.134542 66.232 0.629328 65.563C1.12411 64.894 1.85271 64.4359 2.67003 64.2799L29.93 58.9999L30.39 58.9199L30.86 58.8199L44.44 56.1999L44.91 56.1099L45.37 56.0199L93.53 46.7299C93.7376 46.6897 93.9486 46.6696 94.16 46.6699C94.6962 46.6734 95.2238 46.8036 95.7 47.0499L124.35 62.1499C124.804 62.3896 125.196 62.7309 125.496 63.1473C125.796 63.5636 125.996 64.0436 126.08 64.5499C126.169 65.0599 126.136 65.5836 125.985 66.0787C125.834 66.5738 125.568 67.0264 125.21 67.3999Z" fill="#02BF89"></path><path d="M52.71 97.1799H52.23H51.76L37.86 98.0499H37.39H36.91L6.61003 99.9399C5.74886 99.9983 4.89911 99.7168 4.24297 99.156C3.58683 98.5952 3.17652 97.7997 3.10003 96.9399L2.9698e-05 67.8899C-0.0901365 67.0628 0.134542 66.232 0.629328 65.563C1.12411 64.894 1.85271 64.4359 2.67003 64.2799L29.93 58.9999L30.39 58.9199L30.86 58.8199L44.44 56.1999L44.91 56.1099L45.37 56.0199L93.53 46.7299C93.7376 46.6897 93.9486 46.6696 94.16 46.6699C94.6962 46.6734 95.2238 46.8036 95.7 47.0499L124.35 62.1499C124.804 62.3896 125.196 62.7309 125.496 63.1473C125.796 63.5636 125.996 64.0436 126.08 64.5499C126.165 65.0568 126.131 65.5766 125.98 66.068C125.829 66.5593 125.565 67.0086 125.21 67.3799L100.58 93.2999C100.009 93.8951 99.2336 94.2523 98.41 94.2999L52.71 97.1799Z" fill="white"></path><path d="M125.21 67.3999L100.58 93.2999C100.009 93.8951 99.2336 94.2523 98.41 94.2999L52.71 97.1499H52.23H51.76L37.86 98.0199H37.39H36.91L6.61003 99.9099C5.74886 99.9683 4.89911 99.6868 4.24297 99.126C3.58683 98.5652 3.17652 97.7697 3.10003 96.9099L2.9698e-05 67.8899C-0.0901365 67.0628 0.134542 66.232 0.629328 65.563C1.12411 64.894 1.85271 64.4359 2.67003 64.2799L29.93 58.9999L30.39 58.9199L30.86 58.8199L44.44 56.1999L44.91 56.1099L45.37 56.0199L93.53 46.7299C93.7376 46.6897 93.9486 46.6696 94.16 46.6699C94.6962 46.6734 95.2238 46.8036 95.7 47.0499L124.35 62.1499C124.804 62.3896 125.196 62.7309 125.496 63.1473C125.796 63.5636 125.996 64.0436 126.08 64.5499C126.169 65.0599 126.136 65.5836 125.985 66.0787C125.834 66.5738 125.568 67.0264 125.21 67.3999Z" fill="#02BF89"></path></g><defs><clipPath id="clip0_235_43"><rect width="424.1" height="131.63" fill="white"></rect></clipPath></defs></svg> 